<svg id="图层_1" data-name="图层 1" xmlns="http://www.w3.org/2000/svg" viewBox="0 0 459.21 345.83"><defs><style>.cls-1{fill:#f7f8f8;}.cls-2{fill:#009fb9;}</style></defs><title>V标-logo</title><path class="cls-1" d="M450.67,160.05l-42.73-34.57a24.67,24.67,0,0,1-9.13-19.17V64.51A61.52,61.52,0,0,0,337.45,2.83H121.76A61.52,61.52,0,0,0,60.41,64.51v41.8a24.64,24.64,0,0,1-9.14,19.17L8.54,160.05a15.43,15.43,0,0,0-.17,23.82l43.19,36a24.64,24.64,0,0,1,8.85,18.94v42.48A61.51,61.51,0,0,0,121.76,343H337.45a61.51,61.51,0,0,0,61.36-61.67V238.84a24.64,24.64,0,0,1,8.85-18.94l43.19-36A15.45,15.45,0,0,0,450.67,160.05Z"/><path class="cls-2" d="M202.3,254.3c-2.83-.41-12.85-3.35-23.15-23.81-9.6-19.08-34.51-88-36.79-98.8l-.64-3,1.64-2.63c1.58-2.55,6-8.49,12.25-8.49,1.95,0,6.78.65,9.55,6.66,3.22,7,22.07,59.3,23.86,65,1.37,4.39,7.22,17.24,11.67,25.62,8.8-25.31,26.71-82.64,24.46-104.18-.23-2.24-.37-7.81,3.07-11.63a9.85,9.85,0,0,1,7.42-3.3h.48l1.24,0c4.81.06,8.15,1.12,11.89,6.47a12.1,12.1,0,0,0,6.05,1.37,11.14,11.14,0,0,0,4.11-.69c3.09-1.26,9.22-5,16-9.91a11,11,0,0,1,6.49-2.09,11.17,11.17,0,0,1,3.75.65l11.57,4.13L291.11,104C276.48,123.87,265,126.7,262.9,127.07a69.75,69.75,0,0,1-11.55,1.13A38.4,38.4,0,0,1,247,128c-1.7,9.73-4.91,27-9.25,45.6-9,38.8-18.55,65-28.28,77.79L206.74,255Z"/><path class="cls-2" d="M303.16,165.33a14.3,14.3,0,0,1,.48-28.59,14.3,14.3,0,0,1-.48,28.59Z"/><path class="cls-2" d="M303.19,207a14.3,14.3,0,0,1,.42,28.59,14.3,14.3,0,0,1-.42-28.59Z"/><path class="cls-2" d="M83.69,221.09a6.05,6.05,0,0,1-4-1.47L26.84,176.47l-.07-.05a7.12,7.12,0,0,1,.08-10.59l.13-.1L79.75,124a6.1,6.1,0,0,1,3.89-1.41,6.25,6.25,0,0,1,5.18,2.85A7.17,7.17,0,0,1,90,130.26a7,7,0,0,1-2.35,4.43l-.14.11L41.29,171.24,87.66,209l.06.06A6.92,6.92,0,0,1,90,213.49a7.12,7.12,0,0,1-1.2,4.84A6.14,6.14,0,0,1,83.69,221.09Z"/><path class="cls-2" d="M375.53,122.56a6,6,0,0,1,4,1.48l52.89,43.14.07.06a7.11,7.11,0,0,1-.08,10.58l-.13.11-52.77,41.75a6,6,0,0,1-3.88,1.41,6.27,6.27,0,0,1-5.19-2.84,7.13,7.13,0,0,1-1.12-4.86,6.9,6.9,0,0,1,2.34-4.42l.14-.11,46.17-36.44-46.36-37.74-.07-.06a6.86,6.86,0,0,1-2.28-4.45,7.08,7.08,0,0,1,1.19-4.84A6.18,6.18,0,0,1,375.53,122.56Z"/></svg>